<?xml version="1.0" encoding="UTF-8" standalone="no"?>
<!-- Created with Inkscape (http://www.inkscape.org/) -->

<svg
   width="208mm"
   height="183mm"
   viewBox="0 0 208 183"
   version="1.1"
   id="svg5"
   inkscape:version="1.1.2 (b8e25be833, 2022-02-05)"
   sodipodi:docname="deuchoro.svg"
   xmlns:inkscape="http://www.inkscape.org/namespaces/inkscape"
   xmlns:sodipodi="http://sodipodi.sourceforge.net/DTD/sodipodi-0.dtd"
   xmlns="http://www.w3.org/2000/svg"
   xmlns:svg="http://www.w3.org/2000/svg">
  <sodipodi:namedview
     id="namedview7"
     pagecolor="#ffffff"
     bordercolor="#666666"
     borderopacity="1.0"
     inkscape:pageshadow="2"
     inkscape:pageopacity="0.0"
     inkscape:pagecheckerboard="0"
     inkscape:document-units="mm"
     showgrid="false"
     inkscape:zoom="0.5234703"
     inkscape:cx="0.95516403"
     inkscape:cy="525.34022"
     inkscape:window-width="1920"
     inkscape:window-height="1017"
     inkscape:window-x="-8"
     inkscape:window-y="-8"
     inkscape:window-maximized="1"
     inkscape:current-layer="layer5"
     width="209mm" />
  <defs
     id="defs2" />
  <g
     inkscape:groupmode="layer"
     id="layer3"
     inkscape:label="Layer 3"
     style="display:none">
    <path
       style="display:inline;fill:none;stroke:#000000;stroke-width:0.485287px;stroke-linecap:butt;stroke-linejoin:miter;stroke-opacity:1"
       d="M 0.86779984,182.50531 15.511458,158.54275 c 3.302646,-8.1504 8.754278,-14.86811 9.907938,-24.45116 0.461013,-3.2338 -1.351958,-5.33059 -2.027937,-7.9959 -0.235419,-7.31343 0.353213,-14.52598 1.854114,-19.69998 0.693612,-2.30587 7.570988,-7.261944 11.356482,-10.892903 h 2.317642 l 3.708226,-4.867033 13.905871,-1.622341 8.575293,0.23176 3.708245,0.231767 0.927057,-12.051701 -2.549425,-5.09879 0.927075,-19.6999 -11.588245,-7.879998 C 52.8148,41.541984 48.260198,38.64035 46.336167,33.042458 44.733938,30.476947 44.195395,27.500842 45.640877,22.49717 c 1.433334,-4.022401 4.288619,-6.01344 7.879982,-6.95294 9.116076,-1.502523 18.232152,-0.562791 27.348223,-0.695296 3.785497,-4.584976 7.570982,-8.0784429 11.356467,-11.1246994 0.841085,-0.6074284 0.900465,-1.6430851 1.854121,-2.0858768 9.42951,-1.52770704 15.4052,-0.92133937 21.09059,0.231762 6.97602,2.4039295 10.35645,5.407124 15.52822,8.1117595 6.33546,3.9402797 6.49191,4.7910517 9.73412,7.1847007 1.50714,1.117938 3.11921,7.290984 3.70823,9.965882 2.38493,3.297031 3.98588,4.634093 5.79412,6.489406 1.29353,0.946716 1.36966,9.550618 2.08588,14.13764 0.301,0.895584 2.22844,5.639558 2.08587,6.489412 -2.04708,12.202212 -2.89114,15.639201 -2.54941,13.442286 1.04461,1.313321 2.76264,2.568705 3.07089,3.882026 0.96517,1.391624 1.19746,3.611649 1.97001,5.38851 0.99053,5.09269 0.39478,5.779077 0.0579,7.184648 -1.0951,2.887885 -1.82779,5.50397 -3.47648,8.807032 -1.47537,3.370449 -5.14508,8.054088 -7.22927,10.663548 2.93317,2.5509 7.26058,4.15055 10.93752,6.25521 1.64236,1.68529 1.85159,3.01231 2.31764,4.40354 2.28051,1.01847 5.09067,0.18305 7.64824,0.23176 4.28004,1.85411 5.09882,3.70825 7.64823,5.56236 3.73417,0.74692 4.94431,-0.30903 7.41646,-0.46355 4.84548,1.55008 5.71935,4.01668 8.57529,6.02589 1.79852,0.9067 2.63352,0.65716 3.70825,0.69529 2.85888,1.6997 2.31902,2.78143 3.47646,4.17177 1.08157,1.03518 2.16314,0.38878 3.24469,0.46354 2.12819,5.72418 1.23608,5.40783 1.85413,8.11175 1.31874,2.54401 2.93031,4.79515 4.86706,6.72115 l 0.41575,36.70963 z"
       id="path869-6"
       sodipodi:nodetypes="cccccccccccccccccccccccccccsccccccccccccccccccc" />
    <path
       style="display:inline;fill:none;stroke:#000000;stroke-width:0.485287px;stroke-linecap:butt;stroke-linejoin:miter;stroke-opacity:1"
       d="m 151.55729,67.691206 c -1.45494,0.198457 -2.68072,1.084404 -3.82841,2.204605 0.42008,-2.476975 0.035,-4.599753 -1.47493,-6.227474 -3.93318,-3.059132 -7.08887,-6.895731 -11.79953,-9.177375 -1.5842,-0.736838 -3.16838,-0.953008 -4.75258,-0.163882 l -16.55212,-8.194114 c -5.62663,-1.857333 -8.40529,-3.999462 -16.879885,-5.572 -3.910687,-1.14556 -7.924251,-1.673806 -11.635649,-4.015119 l -8.194112,2.54018 -5.408125,3.277647 c -1.187014,-0.809146 -2.589886,-0.970722 -3.27764,-3.277647 -0.901765,-3.321002 1.608579,-1.978787 2.785995,-2.45824 -1.529633,-0.382658 -3.61921,-3.005099 -4.588697,-1.147176 -0.238556,1.267576 -0.987584,2.2629 -0.163791,4.097061 0.353342,1.181188 0.887827,2.409822 4.424815,4.424824 -0.222056,1.419045 -0.506033,2.652329 -0.433705,4.95453 -0.858087,0.847926 -1.334159,2.362661 -1.656794,3.669544 v 0"
       id="path1264-2"
       sodipodi:nodetypes="cccccccccccccccccc" />
    <path
       style="display:inline;fill:none;stroke:#000000;stroke-width:0.485287px;stroke-linecap:butt;stroke-linejoin:miter;stroke-opacity:1"
       d="m 68.817332,89.47693 c 2.416375,0.713617 4.267897,1.521364 4.836729,2.542898 0.909464,5.22528 1.493523,9.982002 0.491646,12.454972 2.209367,1.38391 4.382533,2.78954 5.08036,5.08036 0.269193,1.73344 0.323836,3.41324 -0.327763,4.91648 -0.639837,0.63229 -1.376206,1.07149 -1.802702,2.13047 -0.04616,2.26452 0.05228,4.64152 -0.655528,6.39143 -4.093628,3.84866 -7.370277,7.08457 -13.27448,12.29115 -3.441527,1.91134 -6.883057,2.49686 -10.324584,5.73589 -4.447589,6.95665 -8.95342,13.84535 -12.127287,22.288 l -1.63882,4.09706 c -0.983485,4.65878 -1.982841,9.30397 -1.474956,15.24106"
       id="path1266-67"
       sodipodi:nodetypes="cccccccccccc" />
    <path
       style="display:inline;fill:none;stroke:#000000;stroke-width:0.485287px;stroke-linecap:butt;stroke-linejoin:miter;stroke-opacity:1"
       d="m 186.89677,182.4828 -8.84965,-17.20763 -19.66587,-24.25459 -9.66907,-16.38822 -11.30789,-22.94353 c -2.11746,-2.571814 -3.05992,-5.535296 -6.39139,-7.702434 -5.02826,-1.725371 -12.00012,-2.071158 -13.19254,-2.171438 -1.16132,-0.11996 -6.24796,0.584477 -9.50518,0.532607 -3.59279,1.415301 -7.40378,4.235216 -9.914885,8.030205 0,0 -0.65552,4.75259 -0.327766,5.40813 0.327766,0.65553 2.294351,7.2108 2.294351,7.2108 l -4.424811,4.91648 0.983297,6.06366 4.588714,0.49162 3.6054,8.68579 11.14399,0.16378 3.46626,6.22904 3.44436,7.08603 c 1.59226,2.90838 3.85177,4.10103 6.19797,5.0707 2.63017,0.77776 5.98286,0.833 7.88143,2.34235 6.446,8.74031 6.9836,18.95772 10.47539,28.43658"
       id="path1268-3"
       sodipodi:nodetypes="cccccccccsccccccccccc" />
    <path
       style="display:inline;fill:none;stroke:#000000;stroke-width:0.485287px;stroke-linecap:butt;stroke-linejoin:miter;stroke-opacity:1"
       d="m 77.095602,116.60211 c 2.656039,-1.92666 5.539263,-2.79312 8.521882,-3.19571 0.464412,0.56441 0.942931,1.11707 2.048516,1.14717 1.113862,0.12913 1.669515,-0.43963 2.376294,-0.81941 2.128685,1.38286 6.765236,1.30561 7.333749,2.786"
       id="path1270-7"
       sodipodi:nodetypes="ccccc" />
    <path
       style="display:inline;fill:none;stroke:#000000;stroke-width:0.485287px;stroke-linecap:butt;stroke-linejoin:miter;stroke-opacity:1"
       d="m 72.015241,127.25445 0.655528,10.98012 4.752596,7.53859 2.62211,11.63564 3.113758,4.26097 0.98331,-3.44153 0.819409,4.75259 4.588699,3.93314 5.899775,3.44156 6.391394,-3.27767 5.40813,-4.91646 2.94987,-4.7526 -0.32776,3.27768 5.40813,-6.55531 4.42481,-6.22753 2.45825,-3.6054"
       id="path1272-5" />
    <path
       style="display:inline;fill:none;stroke:#000000;stroke-width:0.485287px;stroke-linecap:butt;stroke-linejoin:miter;stroke-opacity:1"
       d="m 77.218784,124.25601 c 1.31813,-0.77663 1.532028,-1.63822 4.113835,-2.31765 6.026512,-0.004 11.22673,1.33583 16.397353,2.72322 2.958088,2.03804 2.746648,4.28739 4.113818,6.4315 -4.268338,0.0387 -8.41784,-0.99219 -12.804995,0.11588 -1.902861,-0.0891 -3.784297,-0.14142 -6.431472,-1.50649 -0.701825,-2.01447 -4.238475,-3.10576 -5.388539,-5.4465 z"
       id="path1474-2"
       sodipodi:nodetypes="ccccccc" />
    <path
       style="display:inline;fill:none;stroke:#000000;stroke-width:0.485287px;stroke-linecap:butt;stroke-linejoin:miter;stroke-opacity:1"
       d="m 135.43771,99.192526 c -0.14508,-7.813555 0.76479,-11.433634 1.14717,-17.005604 0.25773,-3.234202 1.07581,-6.628511 0.65553,-9.668996 -0.70633,-2.776462 -5.00528,-3.704669 -7.21082,-7.374658 -1.0277,-2.380805 -0.21851,-7.210788 -0.32775,-10.816188"
       id="path1729-3"
       sodipodi:nodetypes="ccccc" />
    <path
       style="display:inline;fill:none;stroke:#000000;stroke-width:0.485287px;stroke-linecap:butt;stroke-linejoin:miter;stroke-opacity:1"
       d="m 147.72888,69.895811 c -1.96822,4.779473 -2.85553,9.829156 -3.60541,14.913216 -0.44619,3.452622 -0.82515,7.176681 -0.51143,10.66224 -0.0928,4.450996 2.27995,6.992253 3.13363,11.953443 -0.14875,3.51573 -1.61931,5.33173 -2.78599,7.53857"
       id="path1731-5"
       sodipodi:nodetypes="ccccc" />
    <path
       style="display:inline;fill:none;stroke:#000000;stroke-width:0.482862px;stroke-linecap:butt;stroke-linejoin:miter;stroke-opacity:1"
       d="m 68.122039,52.626569 c 1.232532,1.378445 2.935711,2.286245 5.476894,2.356037 1.785477,0 3.737471,-4.752585 3.893991,-3.769291 -0.482996,1.167619 1.581518,4.998414 1.581518,4.998414 1.513215,2.397858 1.971473,4.097659 5.516486,4.588676 1.753848,-0.16741 2.409943,-0.859177 2.829478,-1.372504 -3.579646,0.34562 -4.387586,-1.735161 -5.854046,-3.031812 -0.225284,-0.520969 -2.557192,-5.302352 0.794025,-7.149364 0.539987,-0.475975 4.612404,0.146219 6.327732,1.47494 4.305498,0.832114 6.977732,-2.305373 8.599204,-3.769292 l 5.029739,-4.75259"
       id="path1733-9"
       sodipodi:nodetypes="ccccccccccc" />
    <path
       style="display:inline;fill:none;stroke:#000000;stroke-width:0.485287px;stroke-linecap:butt;stroke-linejoin:miter;stroke-opacity:1"
       d="m 67.877306,87.611642 c -3.803292,-1.873491 -5.659,-4.588673 -10.652349,-6.883011 -2.282792,-0.871744 -7.67773,-1.708951 -9.99682,0.819404 -0.222667,0.41037 -2.755015,2.122808 -2.264525,4.723573 0.496763,1.782271 1.415988,3.241352 2.399445,3.702259 1.44893,1.164714 2.560704,1.251074 3.991128,1.020497 0.656628,-0.0855 3.194846,-2.494748 4.91646,-2.737135 4.38659,-0.950527 7.728114,-0.37244 11.606661,-0.645587 z"
       id="path1592-0"
       sodipodi:nodetypes="cccccccc" />
    <path
       style="display:inline;fill:none;stroke:#000000;stroke-width:0.485287px;stroke-linecap:butt;stroke-linejoin:miter;stroke-opacity:1"
       d="m 108.46489,91.255951 c 3.80329,-1.873488 5.65901,-4.588673 10.65235,-6.883021 2.28279,-0.871734 7.67774,-1.708951 9.99683,0.819424 0.22267,0.41037 2.75501,2.122808 2.26452,4.723566 -0.49675,1.782258 -1.41599,3.241339 -2.39943,3.702249 -1.44895,1.164721 -2.56072,1.251071 -3.99112,1.020504 -0.65665,-0.0855 -3.19488,-2.494748 -4.91647,-2.737135 -4.38661,-0.950534 -7.72813,-0.372437 -11.60668,-0.645587 z"
       id="path1592-0-9"
       sodipodi:nodetypes="cccccccc" />
  </g>
  <g
     inkscape:groupmode="layer"
     id="layer5"
     inkscape:label="Layer 5"
     style="display:inline">
    <path
       style="display:inline;fill:#f7d3b8;fill-opacity:1;stroke:#000000;stroke-width:0.491645;stroke-opacity:0"
       d="m 2.0214188,181.52954 c 0.1841082,-0.34401 3.2498011,-5.39568 6.8126467,-11.22594 6.5070805,-10.6482 13.4128825,-23.76171 15.2807935,-29.0169 1.098415,-3.09027 1.963119,-7.78174 1.717457,-9.31805 -0.107508,-0.67232 -0.658583,-2.37681 -1.224608,-3.78771 l -1.02913,-2.56532 0.214288,-5.00858 c 0.232011,-5.42272 0.617597,-8.79083 1.411798,-12.33199 0.455904,-2.03279 0.695797,-2.45127 2.354408,-4.10711 1.015725,-1.01403 3.504217,-3.27724 5.529982,-5.029354 3.234908,-2.797895 3.833316,-3.186752 4.916473,-3.194802 1.152146,-0.008 1.349662,-0.16891 3.003018,-2.437685 1.513054,-2.076268 1.940942,-2.455198 2.949884,-2.612345 2.144757,-0.33408 3.465191,-0.30763 4.190395,0.084 1.294068,0.698734 3.432566,0.472307 4.861936,-0.514787 l 1.305201,-0.901347 6.869188,0.0778 c 5.958958,0.0675 7.141972,0.16865 8.927835,0.762957 1.188911,0.395637 2.321403,1.019104 2.680574,1.475711 0.830787,1.056184 1.503751,6.403854 1.272438,10.111472 l -0.176601,2.83065 1.388384,0.95523 c 2.189807,1.50662 3.382892,3.06405 3.634959,4.74496 0.283917,1.8933 0.01893,2.91648 -1.139605,4.40016 -0.805456,1.03152 -0.956545,1.57547 -1.135253,4.08715 -0.113374,1.5935 -0.342797,3.15262 -0.509829,3.46472 -0.271145,0.50665 -9.55424,9.24384 -12.470799,11.73746 -0.630947,0.53945 -2.548366,1.59679 -4.260941,2.34966 -4.710007,2.07058 -6.353478,3.33468 -8.340376,6.41508 -7.57879,11.74985 -12.005117,21.41638 -13.269471,28.97882 -0.372978,2.2309 -0.678151,5.4389 -0.678151,7.12888 v 3.07269 H 19.39749 c -17.3256845,0 -17.7035432,-0.0136 -17.3760712,-0.6255 z"
       id="path17997" />
    <path
       style="display:inline;fill:#f7d3b8;fill-opacity:1;stroke:#000000;stroke-width:0.491645;stroke-opacity:0"
       d="m 147.13674,179.28709 c -0.47158,-1.57737 -1.44898,-5.09379 -2.17201,-7.81429 -2.14803,-8.08233 -3.63776,-11.91374 -6.20034,-15.94644 -1.40248,-2.20706 -2.19231,-2.65164 -6.30576,-3.54941 -5.53135,-1.20724 -7.38916,-2.68765 -10.02662,-7.98977 -0.99098,-1.99218 -2.70684,-5.28145 -3.81304,-7.3095 l -2.01127,-3.68734 h -2.16964 c -1.19331,0 -3.73225,-0.0956 -5.64209,-0.21248 l -3.47243,-0.21246 -1.71137,-4.18188 c -1.85696,-4.53763 -1.88179,-4.56191 -4.679242,-4.57562 -0.563342,-0.002 -1.187277,-0.11336 -1.386506,-0.24582 -0.199229,-0.13245 -0.532405,-1.39872 -0.740391,-2.81396 l -0.378137,-2.57314 1.281061,-1.52391 c 0.704596,-0.83816 1.664621,-1.88149 2.133384,-2.31851 0.468781,-0.43704 0.852331,-1.0113 0.852331,-1.27615 0,-0.26484 -0.53534,-2.21236 -1.189631,-4.32784 -1.065025,-3.44341 -1.165263,-4.07388 -0.956965,-6.01889 0.205802,-1.92173 0.401181,-2.37948 1.692056,-3.964161 1.48779,-1.826411 4.45338,-4.134376 6.88984,-5.36199 1.1646,-0.586797 2.20062,-0.713177 7.3747,-0.899594 l 6.01975,-0.21687 2.00792,1.351304 c 1.67362,1.126311 2.27539,1.351301 3.61443,1.351301 0.93995,0 1.91614,-0.21688 2.35278,-0.522717 1.55434,-1.088694 3.56212,0.326797 6.49057,4.575873 1.01057,1.466284 4.60852,8.197004 7.99549,14.957154 3.38695,6.76014 8.15198,15.66416 10.58896,19.78671 4.2654,7.21563 4.79982,7.95079 14.31088,19.68621 l 9.88003,12.19066 4.23473,8.25574 4.23474,8.25573 h -19.12038 -19.1204 z"
       id="path35426" />
    <path
       style="display:inline;fill:#f7d3b8;fill-opacity:1;stroke:#000000;stroke-width:0.491645;stroke-opacity:0"
       d="m 95.450426,115.06689 c -5.66331,-1.80179 -5.536645,-1.77755 -6.549501,-1.25379 -0.964836,0.49894 -1.745186,0.36073 -2.971222,-0.52624 -0.383739,-0.27764 -1.10171,-0.21074 -2.949882,0.27482 -1.343476,0.35299 -2.668947,0.74254 -2.94549,0.86572 -0.431722,0.19227 -0.484459,-0.10089 -0.372992,-2.0736 0.0714,-1.26365 0.0396,-2.65703 -0.07068,-3.09641 -0.26189,-1.04345 -1.651865,-2.67595 -3.286808,-3.8603 l -1.306905,-0.94672 -0.03703,-3.67513 c -0.04688,-4.651446 -0.691763,-8.685125 -1.538239,-9.621379 -0.349102,-0.386117 -1.324588,-0.958614 -2.167752,-1.272201 -0.843163,-0.31359 -1.637535,-0.662647 -1.765272,-0.775697 -0.127738,-0.11301 -0.01936,-2.830005 0.240853,-6.037687 l 0.473107,-5.832114 -1.303157,-2.591858 -1.303158,-2.591815 0.340483,-7.797485 c 0.187262,-4.288606 0.412785,-8.401417 0.501166,-9.139587 l 0.160688,-1.342116 1.518039,0.76853 c 1.485581,0.752094 3.794288,1.012097 4.575267,0.51526 0.210284,-0.133776 0.819747,-0.793646 1.354364,-1.466375 l 0.972031,-1.223143 0.710161,1.881096 c 1.541627,4.083528 4.370859,6.961423 6.843673,6.961423 1.079013,0 2.770613,-0.849387 3.263552,-1.638721 0.389173,-0.623167 0.327478,-0.655627 -1.246202,-0.655627 -1.509273,0 -1.794549,-0.12994 -3.227012,-1.469821 -2.731231,-2.554733 -3.164153,-6.473766 -0.851858,-7.711274 0.865917,-0.46342 3.194215,-0.02795 5.643529,1.055472 2.961901,1.310189 5.631401,0.10157 10.972787,-4.967933 l 3.512654,-3.333848 5.43831,2.158448 c 2.99106,1.187145 8.95924,3.920085 13.26259,6.073205 l 7.82429,3.914752 0.1046,5.172313 c 0.12339,6.099907 0.15155,6.163207 4.13689,9.305589 2.68618,2.118028 3.13627,2.630725 3.45195,3.932136 0.11396,0.47005 -0.23271,5.099483 -0.77051,10.287623 -0.5378,5.18814 -0.97781,10.46593 -0.97781,11.728444 v 2.295445 l -1.27764,-1.451461 c -0.7027,-0.798314 -1.77981,-1.721911 -2.39356,-2.052428 l -1.11591,-0.600967 0.75472,-1.490771 c 1.2335,-2.436455 0.96624,-4.023486 -1.05418,-6.259834 -1.68277,-1.862621 -3.43506,-2.448105 -6.78702,-2.267738 -3.46454,0.18644 -5.74358,1.182654 -10.21884,4.466916 -1.82014,1.335751 -3.78869,2.660215 -4.37458,2.943272 -0.58588,0.28304 -1.06523,0.634807 -1.06523,0.781687 0,0.146887 0.84808,0.289557 1.88464,0.317037 l 1.88465,0.05 -1.96659,0.20711 c -2.22566,0.234367 -3.7414,0.944974 -6.56374,3.077172 -2.34578,1.772178 -4.356804,4.114816 -4.770437,5.55709 -0.607128,2.11692 -0.336295,5.48889 0.690092,8.59185 0.536268,1.62123 0.975034,3.17687 0.975034,3.45695 0,0.46922 -2.294387,2.98937 -2.635936,2.89531 -0.08253,-0.0227 -0.813783,-0.25249 -1.624998,-0.51058 z"
       id="path35465" />
    <path
       style="display:inline;fill:#f7d3b8;fill-opacity:1;stroke:#000000;stroke-width:0.245824;stroke-opacity:0"
       d="m 145.13027,101.07425 c -1.07351,-2.902298 -1.20786,-3.778832 -1.22462,-7.989228 -0.0161,-4.029089 0.19677,-6.328494 1.04579,-11.299997 0.69651,-4.078416 1.21767,-6.291814 2.15324,-9.144979 0.75557,-2.304235 0.87305,-2.546135 1.50043,-3.089622 0.37437,-0.324307 1.06503,-0.780424 1.53479,-1.013574 0.80616,-0.400127 0.87131,-0.408367 1.16048,-0.14668 0.16849,0.15248 0.34511,0.23848 0.39249,0.1911 0.0474,-0.0474 0.55852,0.414607 1.13588,1.026644 1.26243,1.338221 1.90809,2.609655 2.8093,5.532097 0.83567,2.709905 1.08546,4.057219 1.0938,5.899737 0.007,1.694901 -0.11924,2.234738 -1.29129,5.49002 -1.73379,4.815683 -3.00225,7.464718 -5.02504,10.49429 -1.43351,2.146958 -4.27665,5.893872 -4.47226,5.893872 -0.0721,0 -0.43792,-0.82966 -0.81299,-1.84368 z"
       id="path35750" />
    <path
       style="display:inline;fill:#502d16;fill-opacity:1;stroke:#000000;stroke-width:0.491645;stroke-opacity:0"
       d="m 82.677931,59.807738 c -1.715916,-0.868274 -4.926796,-6.364851 -4.926796,-8.434005 0,-1.072636 -0.558353,-0.752662 -1.985831,1.138014 -0.743344,0.984551 -1.625835,1.877156 -1.961091,1.983559 -0.78769,0.250006 -2.804788,-0.306556 -4.185053,-1.154742 -1.185765,-0.728674 -1.196976,-1.172154 -0.07898,-3.12565 0.343496,-0.600198 0.659874,-2.103489 0.79328,-3.769291 l 0.221908,-2.77091 -1.480851,-0.930427 c -2.208601,-1.38768 -2.959026,-2.62299 -2.959026,-4.871011 0,-2.269895 0.423627,-2.842117 1.680201,-2.269584 l 0.878565,0.4003 -0.705793,0.494357 c -1.533027,1.073776 -0.63793,4.13202 1.628053,5.562469 l 1.331872,0.840775 2.837787,-1.707266 c 1.953103,-1.175022 4.063963,-2.084442 6.770955,-2.917128 l 3.933179,-1.20986 1.966596,0.913418 c 1.882383,0.874314 8.487869,2.779801 12.291168,3.545638 0.991495,0.199646 1.995466,0.483593 2.231056,0.630995 0.63093,0.394747 -5.868906,6.48482 -7.96693,7.464694 -2.031146,0.948626 -3.243842,0.967377 -5.24735,0.08113 -0.858755,-0.379868 -2.431259,-0.76955 -3.494462,-0.865957 -1.699182,-0.154079 -2.029731,-0.0845 -2.731723,0.574983 -2.020515,1.898183 -1.746682,5.558208 0.607308,8.117184 0.748573,0.813744 1.951025,1.743128 2.672103,2.065308 l 1.311052,0.585757 -1.311052,0.0182 c -0.721078,0.01 -1.675142,-0.16591 -2.120144,-0.39108 z"
       id="path36091" />
    <path
       style="display:inline;fill:#502d16;fill-opacity:1;stroke:#000000;stroke-width:0.491645;stroke-opacity:0"
       d="m 92.434507,168.11425 c -1.388354,-0.84042 -3.555091,-2.388 -4.814968,-3.43906 l -2.290678,-1.91103 -0.392305,-2.43186 c -0.423182,-2.6233 -1.06403,-3.22233 -1.462045,-1.36662 -0.125657,0.58589 -0.298627,1.18404 -0.384399,1.32926 -0.128248,0.21715 -2.716859,-2.91103 -2.716859,-3.2832 0,-0.0631 -0.5874,-2.69359 -1.305335,-5.84548 l -1.305326,-5.7307 -2.341648,-3.67458 -2.341649,-3.67459 -0.327719,-5.35463 -0.32772,-5.35463 2.313822,-2.1918 c 2.489589,-2.35832 2.560906,-2.53293 2.769207,-6.78052 l 0.08037,-1.63883 1.96659,-1.05237 c 1.081613,-0.5788 2.758038,-1.21966 3.725369,-1.42413 1.513556,-0.31992 1.90586,-0.29257 2.813463,0.19621 0.745466,0.40147 1.382956,0.50103 2.17439,0.33963 0.615837,-0.1256 1.414697,-0.24181 1.775236,-0.25824 0.710245,-0.0324 4.351311,0.86871 5.832069,1.44329 l 0.915581,0.35529 -0.664865,0.70771 c -0.646823,0.68852 -0.651177,0.78608 -0.160578,3.59684 0.277371,1.58901 0.444271,2.94914 0.370916,3.02249 -0.0733,0.0733 -1.652997,-0.23458 -3.510322,-0.68431 -3.897551,-0.94374 -9.690406,-1.63879 -11.563996,-1.38749 -1.263992,0.16954 -4.491383,2.07219 -4.492631,2.64855 -4.85e-4,0.26659 0.802778,1.078 4.779526,4.82738 1.66155,1.56655 3.644808,2.29814 6.19995,2.28705 1.081629,-0.005 4.80585,-0.0149 8.276057,-0.0227 3.470207,-0.007 6.30948,-0.0665 6.30948,-0.13048 0,-0.63971 -2.26193,-4.88381 -3.062554,-5.74633 -0.706467,-0.76108 -0.844121,-1.0469 -0.434122,-0.90136 0.330225,0.1172 1.004075,0.21315 1.497456,0.21315 0.84524,0 0.99992,0.25539 2.67725,4.4206 l 1.78019,4.42059 5.58023,0.005 5.58024,0.005 2.00965,3.68735 c 1.10532,2.02804 2.37811,4.42901 2.82842,5.33547 l 0.81878,1.64811 -3.32831,4.76798 c -1.83057,2.62239 -4.287,5.92264 -5.45877,7.33388 -1.97727,2.38141 -2.13792,2.50336 -2.23418,1.69609 -0.1681,-1.40984 -0.78897,-1.00482 -2.32009,1.51348 -1.89552,3.11764 -5.99458,6.8043 -9.631271,8.66228 -1.481886,0.75711 -2.915573,1.37098 -3.185986,1.36416 -0.270401,-0.007 -1.627566,-0.69999 -3.015919,-1.54041 z"
       id="path36130" />
    <path
       style="display:inline;fill:#502d16;fill-opacity:1;stroke:#000000;stroke-width:0.491645;stroke-opacity:0"
       d="m 141.00201,108.02858 c -1.52805,-3.09301 -3.35178,-6.52191 -4.05273,-7.61977 l -1.27443,-1.996101 0.20685,-3.606169 c 0.11372,-1.983378 0.51357,-6.482271 0.88845,-9.997523 1.08017,-10.128713 1.15348,-12.050211 0.50514,-13.241275 -0.30431,-0.559017 -1.44317,-1.680121 -2.53082,-2.491345 -1.08765,-0.811207 -2.54382,-2.084648 -3.23592,-2.829845 -1.5493,-1.668161 -1.86439,-3.514019 -1.43899,-8.429802 l 0.2878,-3.325806 1.1173,-0.106584 c 2.40424,-0.229367 5.09056,1.425946 11.62207,7.161499 4.88618,4.290736 5.13131,5.082413 3.33686,10.77688 -2.29149,7.271678 -3.74521,18.075948 -3.18105,23.641815 0.18361,1.811471 0.76628,4.184826 1.67849,6.836916 1.09713,3.18975 1.36577,4.3898 1.25071,5.58722 -0.15073,1.56866 -1.64577,5.26353 -2.12977,5.26353 -0.14941,0 -1.52189,-2.53065 -3.04996,-5.62364 z"
       id="path36169" />
    <path
       style="display:inline;fill:#f7d3b8;fill-opacity:1;stroke:#000000;stroke-width:0.491645;stroke-opacity:0"
       d="m 84.943514,130.16351 c -0.759933,-0.22438 -2.068465,-1.07473 -3.045333,-1.97901 -0.942056,-0.87207 -2.195977,-2.00051 -2.786475,-2.50764 -1.250363,-1.07385 -1.210414,-1.43444 0.270049,-2.43752 0.893035,-0.60508 1.535779,-0.73724 3.580144,-0.73616 5.236182,0.002 13.860074,1.94094 15.505826,3.48484 0.751367,0.70486 2.555315,3.86239 2.554615,4.47148 -4e-5,0.0399 -3.317991,0.0782 -7.373217,0.085 -4.812832,0.008 -7.835841,-0.12419 -8.705609,-0.381 z"
       id="path35504" />
    <path
       style="fill:#0a8064;fill-opacity:1;stroke:#000000;stroke-width:0.491645;stroke-opacity:0"
       d="m 148.21195,67.469406 c -0.0156,-2.135518 -0.96363,-3.479489 -4.90787,-6.957421 -6.36774,-5.614928 -9.93053,-7.600453 -12.45506,-6.941108 -1.06779,0.27888 -1.70295,0.0233 -9.17742,-3.693267 -10.58477,-5.263079 -16.65033,-7.602748 -25.505543,-9.838239 -4.258366,-1.075024 -7.955104,-2.212918 -9.305011,-2.864173 l -2.23972,-1.080542 -4.336448,1.356385 c -2.943943,0.920823 -5.125829,1.842223 -6.794685,2.869359 -2.456574,1.511957 -2.458899,1.512602 -3.441529,0.949582 -1.08207,-0.619993 -2.299811,-2.744859 -2.008347,-3.504407 0.101785,-0.265254 0.548831,-0.482274 0.993432,-0.482274 0.444596,0 1.197839,-0.148081 1.673873,-0.329069 0.84639,-0.321799 0.817782,-0.354391 -1.294428,-1.474944 -1.187969,-0.630229 -2.375666,-1.145871 -2.639328,-1.145871 -0.836753,0 -1.607815,1.618036 -1.621137,3.40188 -0.01713,2.291558 0.854135,3.904518 2.905499,5.379011 l 1.691655,1.215932 -0.371905,2.458234 c -0.343681,2.271703 -1.22887,4.916473 -1.645514,4.916473 -0.09731,0 -2.713354,-1.730905 -5.813424,-3.846453 -9.247365,-6.310578 -12.625462,-9.56284 -15.05384,-14.493085 -1.32402,-2.688105 -1.380139,-2.92709 -1.388995,-5.915049 -0.01267,-4.268886 0.660937,-6.131386 3.099362,-8.56981 1.522464,-1.522464 2.24907,-1.978173 4.03226,-2.52895 3.259429,-1.006735 10.47168,-1.434957 20.226839,-1.200957 l 8.357996,0.200488 1.638817,-2.027707 c 0.901354,-1.115239 3.110664,-3.3708417 4.909568,-5.0124428 1.798904,-1.6416051 4.016467,-3.7389629 4.927945,-4.6608006 l 1.657207,-1.6760658 3.158156,-0.372463 c 7.872995,-0.92850937 15.720805,-0.2038547 20.570155,1.8994191 4.52973,1.9646528 15.81645,8.8740971 19.55543,11.9713431 3.31216,2.74369 3.32151,2.755614 4.2985,5.479163 0.53851,1.501218 1.16863,3.540707 1.40023,4.532194 0.4627,1.98072 2.06716,4.2915 4.89009,7.042813 1.01001,0.984392 1.8001,2.092701 1.98607,2.786003 0.16987,0.633212 0.54614,3.6587 0.8362,6.7233 0.43544,4.600788 0.71909,6.123539 1.62744,8.736254 l 1.10009,3.164255 -0.95942,5.357605 c -0.52768,2.946685 -1.05122,5.900427 -1.16342,6.563884 -0.17619,1.041774 -0.42228,1.314304 -1.80459,1.998398 l -1.60059,0.792117 -0.008,-1.178994 z"
       id="path36334" />
    <path
       style="fill:#0a8064;fill-opacity:1;stroke:#000000;stroke-width:0.491645;stroke-opacity:0"
       d="m 184.664,177.15663 c -1.43669,-2.74913 -3.43122,-6.62086 -4.43227,-8.60383 -1.61823,-3.20555 -2.91389,-4.95042 -11.68238,-15.7327 -9.75526,-11.99569 -9.91343,-12.21444 -14.57452,-20.15753 -2.59172,-4.41663 -5.78712,-10.19516 -7.1009,-12.84117 l -2.38867,-4.81093 0.87356,-1.60501 c 1.61281,-2.96328 2.04003,-5.55928 1.3278,-8.06847 -0.15217,-0.53608 0.005,-0.50327 1.25358,0.26227 0.78513,0.48126 3.03704,1.69208 5.00424,2.69071 3.94851,2.00446 4.51119,2.50853 5.34836,4.79129 0.33812,0.92196 0.84159,1.65713 1.23155,1.7983 0.36278,0.13135 2.19333,0.20275 4.06789,0.15866 3.13915,-0.0738 3.52089,-0.0142 4.83423,0.7555 0.78426,0.45961 2.39405,1.69504 3.57731,2.74539 2.51163,2.22953 3.71868,2.52524 7.57466,1.85568 2.24525,-0.38986 2.42553,-0.37263 4.01823,0.38436 0.91714,0.43589 2.71475,1.75359 3.99471,2.9282 2.51451,2.30756 3.89702,3.05546 5.64814,3.05546 0.88779,0 1.34798,0.2602 2.22295,1.2569 0.60684,0.6913 1.35462,1.72376 1.6617,2.29436 0.49981,0.92866 0.71321,1.03744 2.03537,1.03744 h 1.47702 l 0.62647,2.04852 c 0.34456,1.1267 0.73352,2.92605 0.86434,3.99857 0.25426,2.08456 1.39514,4.21562 3.81077,7.11811 l 1.273,1.52957 0.22094,18.05439 0.22097,18.05436 h -10.18844 -10.18844 z"
       id="path36595" />
    <path
       style="fill:#0a8064;fill-opacity:1;stroke:#000000;stroke-width:0.491645;stroke-opacity:0"
       d="m 37.904252,180.99801 c -0.275434,-1.4682 0.362346,-7.66383 1.163022,-11.29803 1.063866,-4.82883 5.094485,-13.79557 9.355616,-20.81306 5.223597,-8.60253 5.5926,-8.97474 11.510852,-11.61091 3.008356,-1.34003 3.802325,-1.89237 7.458129,-5.18841 2.250239,-2.02879 4.156206,-3.57748 4.235468,-3.44152 0.07927,0.13596 0.250302,2.38585 0.380078,4.99978 l 0.235956,4.7526 2.395204,3.78651 2.395201,3.78653 1.313794,5.80602 c 1.284736,5.67757 1.35238,5.85964 3.057646,8.23067 1.708622,2.37568 2.245682,2.73386 2.245682,1.49766 0,-0.33926 0.147491,-0.70799 0.327766,-0.81941 0.182003,-0.11252 0.329757,0.134 0.33224,0.55425 0.0096,1.54468 0.427861,2.17573 2.724466,4.1059 2.265751,1.90425 7.668137,5.33667 8.399543,5.33667 0.195354,0 1.790579,-0.72543 3.544942,-1.61208 2.405753,-1.21586 3.891593,-2.26687 6.045283,-4.27618 1.57054,-1.46524 3.19297,-3.26701 3.6054,-4.00392 l 0.74989,-1.33981 0.16387,1.08444 0.16389,1.08446 3.13272,-3.81435 c 1.72301,-2.0979 4.45165,-5.72952 6.06366,-8.07026 1.61201,-2.34075 3.01913,-4.26362 3.12697,-4.27304 0.10784,-0.01 0.46352,0.57603 0.79043,1.30102 0.70014,1.55262 2.81686,3.59572 4.74379,4.57875 0.75384,0.38458 2.71788,0.99328 4.36455,1.35267 3.95613,0.86344 4.80223,1.30806 6.01015,3.15834 2.61406,4.00415 3.91056,7.37611 6.47448,16.83884 0.99501,3.6723 2.03053,7.30374 2.30116,8.0699 l 0.49207,1.39299 H 92.664733 38.121312 Z"
       id="path36634" />
    <path
       style="fill:#333333;fill-opacity:1;stroke:#000000;stroke-width:0.491645;stroke-opacity:0"
       d="m 148.22054,67.001779 c 0,-1.834621 -1.03591,-3.298132 -4.47628,-6.323954 -6.37743,-5.60899 -9.28737,-7.334058 -12.37154,-7.334058 -1.89545,0 -2.4708,-0.211231 -8.57054,-3.146551 -12.6963,-6.109717 -16.25658,-7.482504 -27.187865,-10.483198 -3.605414,-0.9897 -7.54038,-2.25347 -8.744356,-2.808378 l -2.189073,-1.008917 -3.831753,1.206803 c -2.107458,0.663743 -5.228882,1.933313 -6.936492,2.821268 -3.431814,1.784538 -3.726044,1.770154 -5.056153,-0.247152 -1.109091,-1.682095 -0.845512,-2.11008 1.51994,-2.468013 1.144409,-0.173161 0.710354,-1.040971 -0.983294,-1.965905 -2.322631,-1.268435 -3.349937,-1.209564 -3.949897,0.226343 -1.258414,3.011797 0.327884,6.767534 3.641636,8.622008 0.515454,0.28846 0.515235,0.482386 -0.0034,3.041871 -0.467599,2.307702 -0.90251,3.663891 -1.342743,4.187084 -0.04986,0.05926 -1.910426,-1.107668 -4.134601,-2.593153 -9.524325,-6.361155 -13.89218,-10.398772 -16.355117,-15.118597 -1.283834,-2.460267 -1.431075,-2.984058 -1.556113,-5.535602 -0.17515,-3.57411 0.45666,-5.87727 2.226475,-8.116256 0.717178,-0.907299 1.9537,-2.030409 2.747829,-2.495796 2.849323,-1.669816 4.850484,-1.890058 18.377866,-2.022634 l 12.43474,-0.12187 1.713769,-2.045555 c 0.942571,-1.125057 3.868233,-4.0878494 6.501456,-6.5839869 l 4.787701,-4.5384266 2.368496,-0.3226977 c 1.302679,-0.177484 4.654669,-0.3276027 7.448869,-0.3335957 8.44527,-0.0181 12.51622,1.1337631 20.48529,5.7963207 8.57699,5.0182412 15.14806,9.8541172 16.19868,11.9211512 0.33352,0.656201 1.08296,2.740269 1.66542,4.631269 1.16172,3.771588 2.02945,5.226188 5.13892,8.614529 1.1394,1.24157 2.14507,2.577484 2.23484,2.968699 0.0897,0.391215 0.46832,3.358622 0.84122,6.594248 0.48106,4.174264 0.9654,6.780195 1.66753,8.972142 l 0.98956,3.089186 -1.05309,6.105013 c -0.5792,3.357749 -1.20895,6.300144 -1.39945,6.538651 -0.19051,0.23852 -0.90934,0.720877 -1.59741,1.071894 l -1.25104,0.638237 z"
       id="path36673" />
  </g>
  <g
     inkscape:groupmode="layer"
     id="layer4"
     inkscape:label="Layer 4"
     style="display:inline">
    <path
       style="fill:none;fill-opacity:1;stroke:#000000;stroke-width:0.245824;stroke-opacity:0"
       d="m 49.032819,90.551464 c -2.767614,-1.056614 -4.492749,-4.343103 -3.402026,-6.481081 0.517172,-1.013734 2.218361,-2.723815 3.17549,-3.192102 1.34824,-0.659627 3.234199,-0.841817 5.390914,-0.520777 2.827557,0.420897 4.624329,1.300141 8.340103,4.081236 1.201854,0.899524 2.605766,1.912728 3.119808,2.251568 l 0.934619,0.616074 -3.966444,0.0865 c -4.016274,0.0876 -6.198005,0.34156 -7.458861,0.868387 -0.329738,0.137767 -1.326854,0.739344 -2.215813,1.336831 -1.395042,0.937644 -1.731894,1.093264 -2.460791,1.136794 -0.464478,0.0277 -1.120126,-0.0548 -1.456999,-0.18339 z"
       id="path17004" />
    <path
       style="fill:#00ffff;fill-opacity:1;stroke:#000000;stroke-width:0.245824;stroke-opacity:0"
       d="m 49.032819,90.551464 c -2.767614,-1.056614 -4.492749,-4.343103 -3.402026,-6.481081 0.517172,-1.013734 2.218361,-2.723815 3.17549,-3.192102 1.34824,-0.659627 3.234199,-0.841817 5.390914,-0.520777 2.827557,0.420897 4.624329,1.300141 8.340103,4.081236 1.201854,0.899524 2.605766,1.912728 3.119808,2.251568 l 0.934619,0.616074 -3.966444,0.0865 c -4.016274,0.0876 -6.198005,0.34156 -7.458861,0.868387 -0.329738,0.137767 -1.326854,0.739344 -2.215813,1.336831 -1.395042,0.937644 -1.731894,1.093264 -2.460791,1.136794 -0.464478,0.0277 -1.120126,-0.0548 -1.456999,-0.18339 z"
       id="path17376" />
    <path
       style="fill:#00ffff;fill-opacity:1;stroke:#000000;stroke-width:0.245824;stroke-opacity:0"
       d="m 123.61516,93.387069 c -1.98837,-1.308024 -2.79074,-1.693381 -3.99208,-1.917278 -1.62241,-0.30237 -4.59754,-0.512337 -7.28098,-0.513817 l -2.52839,-10e-4 1.17488,-0.809367 c 0.64618,-0.445137 1.78396,-1.283801 2.52838,-1.863688 2.87418,-2.238878 5.57269,-3.697229 7.63273,-4.124949 1.78525,-0.370647 4.32989,-0.327537 5.70323,0.0967 0.97814,0.30212 1.26581,0.492707 2.28807,1.515911 1.83482,1.836501 2.23125,2.889395 1.71383,4.551836 -0.40648,1.306011 -1.15672,2.387635 -2.11032,3.042472 -1.08473,0.744877 -1.86186,1.032634 -2.78877,1.032634 -0.71295,0 -0.98503,-0.11732 -2.34058,-1.009014 z"
       id="path17415" />
  </g>
</svg>
